<svg xmlns="http://www.w3.org/2000/svg" xmlns:xlink="http://www.w3.org/1999/xlink" width="500" zoomAndPan="magnify" viewBox="0 0 375 374.999991" height="500" preserveAspectRatio="xMidYMid meet" version="1.0"><defs><g/></defs><rect x="-37.5" width="450" fill="#ffc857" y="-37.499999" height="449.999989" fill-opacity="1"/><rect x="-37.5" width="450" fill="#ffffff" y="-37.499999" height="449.999989" fill-opacity="1"/><rect x="-37.5" width="450" fill="#ffc857" y="-37.499999" height="449.999989" fill-opacity="1"/><g fill="#1c1c1c" fill-opacity="1"><g transform="translate(38.917971, 183.973114)"><g><path d="M 0.921875 0.0625 L 0.984375 -0.796875 L 4.1875 -1.234375 C 4.46875 -1.273438 4.710938 -1.539062 4.921875 -2.03125 L 18.203125 -43.046875 L 22.265625 -43.046875 L 36.40625 -1.171875 L 40.65625 -0.921875 C 40.65625 -0.878906 40.632812 -0.570312 40.59375 0 L 28.296875 0.0625 C 28.296875 -0.300781 28.3125 -0.585938 28.34375 -0.796875 L 31.546875 -1.234375 C 31.878906 -1.273438 32.046875 -1.519531 32.046875 -1.96875 L 28.65625 -12 L 9.46875 -12 L 6.21875 -1.296875 L 13.34375 -0.921875 C 13.34375 -0.878906 13.320312 -0.570312 13.28125 0 Z M 18.640625 -41.875 L 9.84375 -13.21875 L 28.234375 -13.21875 Z M 18.640625 -41.875 "/></g></g></g><g fill="#1c1c1c" fill-opacity="1"><g transform="translate(80.115073, 183.973114)"><g><path d="M 3.375 0.0625 L 3.4375 -0.796875 L 6.640625 -1.234375 C 7.015625 -1.273438 7.203125 -1.5625 7.203125 -2.09375 L 7.203125 -28.71875 C 7.117188 -29.050781 6.992188 -29.21875 6.828125 -29.21875 L 3.078125 -29.328125 L 3.140625 -30.203125 C 5.722656 -30.566406 7.460938 -30.75 8.359375 -30.75 C 10.003906 -30.75 10.925781 -30.03125 11.125 -28.59375 L 11.1875 -28.59375 L 11.1875 -27.3125 C 14.550781 -29.601562 17.769531 -30.8125 20.84375 -30.9375 C 23.84375 -30.9375 26.117188 -30.34375 27.671875 -29.15625 C 28.367188 -28.613281 28.992188 -27.78125 29.546875 -26.65625 C 30.097656 -25.53125 30.375 -24.1875 30.375 -22.625 L 30.375 -1.234375 L 35 -0.921875 C 35 -0.878906 34.976562 -0.570312 34.9375 0 L 22.625 0.0625 C 22.625 -0.300781 22.644531 -0.585938 22.6875 -0.796875 L 25.890625 -1.234375 C 26.222656 -1.273438 26.390625 -1.5625 26.390625 -2.09375 L 26.390625 -21.09375 C 26.390625 -22.726562 26.171875 -24.117188 25.734375 -25.265625 C 25.304688 -26.421875 24.828125 -27.265625 24.296875 -27.796875 C 23.765625 -28.328125 23.109375 -28.738281 22.328125 -29.03125 C 21.421875 -29.351562 20.476562 -29.515625 19.5 -29.515625 C 17.039062 -29.472656 14.269531 -28.507812 11.1875 -26.625 L 11.1875 -1.234375 L 15.8125 -0.921875 C 15.8125 -0.878906 15.789062 -0.570312 15.75 0 Z M 3.375 0.0625 "/></g></g></g><g fill="#1c1c1c" fill-opacity="1"><g transform="translate(118.852647, 183.973114)"><g><path d="M 27.859375 -43.609375 L 27.859375 -3.203125 C 27.859375 -1.929688 28.1875 -1.296875 28.84375 -1.296875 L 32.53125 -1.109375 L 32.46875 -0.1875 C 30.5 0.144531 28.453125 0.3125 26.328125 0.3125 C 25.867188 0.269531 25.382812 0.046875 24.875 -0.359375 C 24.363281 -0.773438 24.066406 -1.3125 23.984375 -1.96875 C 21.648438 -0.488281 18.941406 0.25 15.859375 0.25 C 12.867188 0.25 10.101562 -0.59375 7.5625 -2.28125 C 6.125 -3.21875 4.960938 -4.703125 4.078125 -6.734375 C 3.203125 -8.765625 2.765625 -11.234375 2.765625 -14.140625 C 2.765625 -19.515625 4.140625 -23.613281 6.890625 -26.4375 C 9.796875 -29.476562 13.113281 -31 16.84375 -31 C 19.144531 -31 21.484375 -30.40625 23.859375 -29.21875 L 23.859375 -43.90625 C 23.859375 -44.363281 23.738281 -44.59375 23.5 -44.59375 L 19.734375 -44.703125 L 19.796875 -45.578125 C 22.378906 -45.941406 24.148438 -46.125 25.109375 -46.125 C 26.078125 -46.125 26.773438 -45.859375 27.203125 -45.328125 C 27.640625 -44.796875 27.859375 -44.222656 27.859375 -43.609375 Z M 16.671875 -0.859375 C 19.171875 -0.859375 21.566406 -1.410156 23.859375 -2.515625 L 23.859375 -28.234375 C 22.054688 -29.335938 20.273438 -29.890625 18.515625 -29.890625 C 14.984375 -29.890625 12.140625 -28.535156 9.984375 -25.828125 C 7.835938 -23.117188 6.765625 -19.242188 6.765625 -14.203125 C 6.765625 -5.304688 10.066406 -0.859375 16.671875 -0.859375 Z M 16.671875 -0.859375 "/></g></g></g><g fill="#1c1c1c" fill-opacity="1"><g transform="translate(154.454322, 183.973114)"><g><path d="M 11.125 -28.234375 L 11.125 -23.3125 C 14.363281 -28.0625 17.539062 -30.476562 20.65625 -30.5625 C 20.90625 -30.5625 21.15625 -30.5625 21.40625 -30.5625 L 24.84375 -30.140625 L 23.25 -26.4375 C 22.46875 -27.21875 21.460938 -27.609375 20.234375 -27.609375 C 17.242188 -27.566406 14.207031 -25.578125 11.125 -21.640625 L 11.125 -1.234375 L 16.359375 -0.921875 C 16.359375 -0.878906 16.335938 -0.570312 16.296875 0 L 3.375 0.0625 C 3.375 -0.300781 3.394531 -0.585938 3.4375 -0.796875 L 6.640625 -1.234375 C 6.972656 -1.273438 7.140625 -1.5625 7.140625 -2.09375 L 7.140625 -28.78125 C 7.054688 -29.070312 6.929688 -29.21875 6.765625 -29.21875 L 3.078125 -29.328125 L 3.140625 -30.203125 C 5.347656 -30.566406 7.023438 -30.75 8.171875 -30.75 C 9.328125 -30.75 10.109375 -30.484375 10.515625 -29.953125 C 10.921875 -29.421875 11.125 -28.847656 11.125 -28.234375 Z M 11.125 -28.234375 "/></g></g></g><g fill="#1c1c1c" fill-opacity="1"><g transform="translate(181.755082, 183.973114)"><g><path d="M 6.765625 -14.140625 C 6.765625 -5.285156 10.207031 -0.859375 17.09375 -0.859375 C 18.894531 -0.859375 20.820312 -1.050781 22.875 -1.4375 C 24.925781 -1.832031 26.238281 -2.191406 26.8125 -2.515625 L 27.25 -1.90625 C 26.300781 -1.289062 24.75 -0.773438 22.59375 -0.359375 C 20.445312 0.046875 18.476562 0.25 16.6875 0.25 C 14.90625 0.25 13.304688 0.0664062 11.890625 -0.296875 C 10.484375 -0.671875 9.039062 -1.328125 7.5625 -2.265625 C 6.082031 -3.210938 4.910156 -4.691406 4.046875 -6.703125 C 3.191406 -8.710938 2.765625 -11.171875 2.765625 -14.078125 C 2.765625 -19.492188 4.160156 -23.632812 6.953125 -26.5 C 9.859375 -29.5 13.238281 -31 17.09375 -31 C 20.945312 -31 23.890625 -29.929688 25.921875 -27.796875 C 27.953125 -25.660156 28.96875 -22.664062 28.96875 -18.8125 C 28.96875 -18 28.90625 -17.117188 28.78125 -16.171875 L 6.828125 -16.171875 C 6.785156 -15.722656 6.765625 -15.046875 6.765625 -14.140625 Z M 25.34375 -19.25 C 25.34375 -22.320312 24.664062 -24.832031 23.3125 -26.78125 C 21.957031 -28.726562 20.113281 -29.703125 17.78125 -29.703125 C 14.738281 -29.703125 12.175781 -28.367188 10.09375 -25.703125 C 8.40625 -23.617188 7.359375 -20.832031 6.953125 -17.34375 L 25.28125 -17.34375 C 25.320312 -17.789062 25.34375 -18.425781 25.34375 -19.25 Z M 25.640625 -46.125 L 27.484375 -45.6875 L 20.171875 -36.59375 L 19.25 -37.078125 Z M 25.640625 -46.125 "/></g></g></g><g fill="#1c1c1c" fill-opacity="1"><g transform="translate(110.677087, 231.982134)"><g><path d="M 29.1875 0 L 29.140625 -0.8125 C 29.097656 -1.632812 28.785156 -2.046875 28.203125 -2.046875 C 27.890625 -2.046875 27.320312 -1.832031 26.5 -1.40625 C 23.96875 0 21.414062 0.703125 18.84375 0.703125 C 13.925781 0.703125 9.894531 -0.992188 6.75 -4.390625 C 3.613281 -7.785156 2.046875 -12.453125 2.046875 -18.390625 C 2.046875 -24.335938 3.59375 -29.019531 6.6875 -32.4375 C 9.789062 -35.851562 13.84375 -37.5625 18.84375 -37.5625 C 21.375 -37.5625 23.90625 -36.914062 26.4375 -35.625 C 27.257812 -35.195312 27.847656 -34.984375 28.203125 -34.984375 C 28.785156 -34.984375 29.097656 -35.394531 29.140625 -36.21875 L 29.1875 -37.203125 L 30.296875 -37.203125 L 30.296875 -27.078125 L 29.25 -27.078125 C 28.894531 -30.085938 27.769531 -32.300781 25.875 -33.71875 C 23.988281 -35.144531 21.644531 -35.859375 18.84375 -35.859375 C 15.289062 -35.859375 12.429688 -34.296875 10.265625 -31.171875 C 8.097656 -28.054688 7.015625 -23.785156 7.015625 -18.359375 C 7.015625 -12.941406 8.109375 -8.691406 10.296875 -5.609375 C 12.484375 -2.535156 15.332031 -1 18.84375 -1 C 21.644531 -1 23.988281 -1.707031 25.875 -3.125 C 27.769531 -4.550781 28.894531 -6.765625 29.25 -9.765625 L 30.296875 -9.765625 L 30.296875 0 Z M 29.1875 0 "/></g></g></g><g fill="#1c1c1c" fill-opacity="1"><g transform="translate(143.605971, 231.982134)"><g><path d="M 16.734375 -13.625 L 16.796875 -15.671875 L 16.796875 -17.71875 C 16.796875 -22.28125 15.3125 -24.5625 12.34375 -24.5625 C 11.050781 -24.5625 10.046875 -24.125 9.328125 -23.25 C 8.609375 -22.375 8.25 -21.347656 8.25 -20.171875 C 8.25 -19.003906 8.40625 -17.992188 8.71875 -17.140625 C 8.050781 -16.554688 7.132812 -16.265625 5.96875 -16.265625 C 4.800781 -16.265625 4.21875 -17.21875 4.21875 -19.125 C 4.21875 -21.039062 4.96875 -22.660156 6.46875 -23.984375 C 7.96875 -25.304688 10.101562 -25.96875 12.875 -25.96875 C 18.289062 -25.96875 21 -22.769531 21 -16.375 L 21 -4.390625 C 21 -2.285156 21.582031 -1.234375 22.75 -1.234375 C 23.300781 -1.234375 23.78125 -1.484375 24.1875 -1.984375 C 24.59375 -2.492188 24.796875 -3.078125 24.796875 -3.734375 C 24.796875 -4.398438 24.738281 -5.023438 24.625 -5.609375 L 25.734375 -5.796875 C 25.890625 -5.203125 25.96875 -4.554688 25.96875 -3.859375 C 25.96875 -2.453125 25.546875 -1.335938 24.703125 -0.515625 C 23.867188 0.296875 22.769531 0.703125 21.40625 0.703125 C 20.039062 0.703125 18.929688 0.148438 18.078125 -0.953125 C 17.222656 -2.066406 16.796875 -3.738281 16.796875 -5.96875 L 16.796875 -7.015625 C 16.128906 -4.367188 15.070312 -2.421875 13.625 -1.171875 C 12.1875 0.078125 10.519531 0.703125 8.625 0.703125 C 6.738281 0.703125 5.21875 0.109375 4.0625 -1.078125 C 2.914062 -2.265625 2.34375 -3.84375 2.34375 -5.8125 C 2.34375 -7.789062 3.257812 -9.546875 5.09375 -11.078125 C 6.925781 -12.617188 9.554688 -13.390625 12.984375 -13.390625 C 13.722656 -13.390625 14.972656 -13.296875 16.734375 -13.109375 Z M 9.9375 -1.515625 C 11.582031 -1.515625 13.054688 -2.441406 14.359375 -4.296875 C 15.671875 -6.148438 16.441406 -8.753906 16.671875 -12.109375 C 16.285156 -12.148438 15.738281 -12.171875 15.03125 -12.171875 C 11.914062 -12.171875 9.679688 -11.515625 8.328125 -10.203125 C 6.984375 -8.898438 6.3125 -7.390625 6.3125 -5.671875 C 6.3125 -4.546875 6.644531 -3.570312 7.3125 -2.75 C 7.976562 -1.925781 8.851562 -1.515625 9.9375 -1.515625 Z M 9.9375 -1.515625 "/></g></g></g><g fill="#1c1c1c" fill-opacity="1"><g transform="translate(170.452081, 231.982134)"><g><path d="M 17.25 -25.96875 C 18.769531 -25.96875 20.007812 -25.320312 20.96875 -24.03125 C 21.925781 -22.75 22.40625 -21.132812 22.40625 -19.1875 C 22.40625 -17.238281 21.601562 -16.265625 20 -16.265625 C 19.070312 -16.265625 18.3125 -16.554688 17.71875 -17.140625 C 18.226562 -18.273438 18.484375 -19.425781 18.484375 -20.59375 C 18.484375 -22.65625 17.625 -23.6875 15.90625 -23.6875 C 14.46875 -23.6875 13.191406 -22.488281 12.078125 -20.09375 C 10.960938 -17.695312 10.40625 -14.21875 10.40625 -9.65625 L 10.40625 -1.875 C 10.40625 -1.320312 10.679688 -1.046875 11.234375 -1.046875 L 15.15625 -1.046875 L 15.15625 0 L 2.625 0 L 2.625 -1.046875 L 5.375 -1.046875 C 5.925781 -1.046875 6.203125 -1.320312 6.203125 -1.875 L 6.203125 -23.40625 C 6.203125 -23.945312 5.925781 -24.21875 5.375 -24.21875 L 2.625 -24.21875 L 2.625 -25.265625 L 5.5 -25.265625 C 7.84375 -25.265625 9.476562 -25.382812 10.40625 -25.625 L 10.40625 -18.140625 C 11.03125 -20.828125 11.945312 -22.800781 13.15625 -24.0625 C 14.363281 -25.332031 15.726562 -25.96875 17.25 -25.96875 Z M 17.25 -25.96875 "/></g></g></g><g fill="#1c1c1c" fill-opacity="1"><g transform="translate(193.145518, 231.982134)"><g><path d="M 16.96875 -25.265625 L 24.390625 -25.265625 L 24.390625 -24.21875 L 22.234375 -24.21875 C 21.878906 -24.21875 21.601562 -23.945312 21.40625 -23.40625 L 12.6875 0 L 11.109375 0 L 2.40625 -23.40625 C 2.207031 -23.945312 1.929688 -24.21875 1.578125 -24.21875 L -0.578125 -24.21875 L -0.578125 -25.265625 L 9.359375 -25.265625 L 9.359375 -24.21875 L 6.4375 -24.21875 L 13.15625 -5.734375 L 19.953125 -24.21875 L 16.96875 -24.21875 Z M 16.96875 -25.265625 "/></g></g></g><g fill="#1c1c1c" fill-opacity="1"><g transform="translate(216.950235, 231.982134)"><g><path d="M 16.734375 -13.625 L 16.796875 -15.671875 L 16.796875 -17.71875 C 16.796875 -22.28125 15.3125 -24.5625 12.34375 -24.5625 C 11.050781 -24.5625 10.046875 -24.125 9.328125 -23.25 C 8.609375 -22.375 8.25 -21.347656 8.25 -20.171875 C 8.25 -19.003906 8.40625 -17.992188 8.71875 -17.140625 C 8.050781 -16.554688 7.132812 -16.265625 5.96875 -16.265625 C 4.800781 -16.265625 4.21875 -17.21875 4.21875 -19.125 C 4.21875 -21.039062 4.96875 -22.660156 6.46875 -23.984375 C 7.96875 -25.304688 10.101562 -25.96875 12.875 -25.96875 C 18.289062 -25.96875 21 -22.769531 21 -16.375 L 21 -4.390625 C 21 -2.285156 21.582031 -1.234375 22.75 -1.234375 C 23.300781 -1.234375 23.78125 -1.484375 24.1875 -1.984375 C 24.59375 -2.492188 24.796875 -3.078125 24.796875 -3.734375 C 24.796875 -4.398438 24.738281 -5.023438 24.625 -5.609375 L 25.734375 -5.796875 C 25.890625 -5.203125 25.96875 -4.554688 25.96875 -3.859375 C 25.96875 -2.453125 25.546875 -1.335938 24.703125 -0.515625 C 23.867188 0.296875 22.769531 0.703125 21.40625 0.703125 C 20.039062 0.703125 18.929688 0.148438 18.078125 -0.953125 C 17.222656 -2.066406 16.796875 -3.738281 16.796875 -5.96875 L 16.796875 -7.015625 C 16.128906 -4.367188 15.070312 -2.421875 13.625 -1.171875 C 12.1875 0.078125 10.519531 0.703125 8.625 0.703125 C 6.738281 0.703125 5.21875 0.109375 4.0625 -1.078125 C 2.914062 -2.265625 2.34375 -3.84375 2.34375 -5.8125 C 2.34375 -7.789062 3.257812 -9.546875 5.09375 -11.078125 C 6.925781 -12.617188 9.554688 -13.390625 12.984375 -13.390625 C 13.722656 -13.390625 14.972656 -13.296875 16.734375 -13.109375 Z M 9.9375 -1.515625 C 11.582031 -1.515625 13.054688 -2.441406 14.359375 -4.296875 C 15.671875 -6.148438 16.441406 -8.753906 16.671875 -12.109375 C 16.285156 -12.148438 15.738281 -12.171875 15.03125 -12.171875 C 11.914062 -12.171875 9.679688 -11.515625 8.328125 -10.203125 C 6.984375 -8.898438 6.3125 -7.390625 6.3125 -5.671875 C 6.3125 -4.546875 6.644531 -3.570312 7.3125 -2.75 C 7.976562 -1.925781 8.851562 -1.515625 9.9375 -1.515625 Z M 9.9375 -1.515625 "/></g></g></g><g fill="#1c1c1c" fill-opacity="1"><g transform="translate(243.796344, 231.982134)"><g><path d="M 5.328125 -1.875 L 5.328125 -36.03125 C 5.328125 -36.582031 5.050781 -36.859375 4.5 -36.859375 L 1.75 -36.859375 L 1.75 -37.90625 L 4.625 -37.90625 C 6.957031 -37.90625 8.59375 -38.023438 9.53125 -38.265625 L 9.53125 -1.875 C 9.53125 -1.320312 9.804688 -1.046875 10.359375 -1.046875 L 13.109375 -1.046875 L 13.109375 0 L 1.75 0 L 1.75 -1.046875 L 4.5 -1.046875 C 5.050781 -1.046875 5.328125 -1.320312 5.328125 -1.875 Z M 5.328125 -1.875 "/></g></g></g><g fill="#1c1c1c" fill-opacity="1"><g transform="translate(258.652354, 231.982134)"><g><path d="M 25.5625 -17.078125 L 25.5625 -1.75 C 25.5625 -1.28125 25.835938 -1.046875 26.390625 -1.046875 L 29.140625 -1.046875 L 29.140625 0 L 18.609375 0 L 18.609375 -1.046875 L 20.53125 -1.046875 C 21.082031 -1.046875 21.359375 -1.28125 21.359375 -1.75 L 21.359375 -17.84375 C 21.359375 -19.832031 20.914062 -21.300781 20.03125 -22.25 C 19.15625 -23.207031 18 -23.6875 16.5625 -23.6875 C 14.53125 -23.6875 12.847656 -22.488281 11.515625 -20.09375 C 10.191406 -17.695312 9.53125 -14.253906 9.53125 -9.765625 L 9.53125 -1.875 C 9.53125 -1.320312 9.804688 -1.046875 10.359375 -1.046875 L 12.28125 -1.046875 L 12.28125 0 L 1.75 0 L 1.75 -1.046875 L 4.5 -1.046875 C 5.050781 -1.046875 5.328125 -1.28125 5.328125 -1.75 L 5.328125 -36.03125 C 5.328125 -36.582031 5.050781 -36.859375 4.5 -36.859375 L 1.75 -36.859375 L 1.75 -37.90625 L 4.625 -37.90625 C 6.957031 -37.90625 8.59375 -38.023438 9.53125 -38.265625 L 9.53125 -17.671875 C 10.863281 -23.203125 13.789062 -25.96875 18.3125 -25.96875 C 20.34375 -25.96875 22.054688 -25.238281 23.453125 -23.78125 C 24.859375 -22.320312 25.5625 -20.085938 25.5625 -17.078125 Z M 25.5625 -17.078125 "/></g></g></g><g fill="#1c1c1c" fill-opacity="1"><g transform="translate(289.534153, 231.982134)"><g><path d="M 5.609375 -2.859375 C 3.429688 -5.242188 2.34375 -8.503906 2.34375 -12.640625 C 2.34375 -16.773438 3.429688 -20.03125 5.609375 -22.40625 C 7.796875 -24.78125 10.644531 -25.96875 14.15625 -25.96875 C 17.664062 -25.96875 20.519531 -24.78125 22.71875 -22.40625 C 24.925781 -20.03125 26.03125 -16.773438 26.03125 -12.640625 C 26.03125 -8.503906 24.925781 -5.242188 22.71875 -2.859375 C 20.519531 -0.484375 17.664062 0.703125 14.15625 0.703125 C 10.644531 0.703125 7.796875 -0.484375 5.609375 -2.859375 Z M 8.890625 -21.4375 C 7.484375 -19.269531 6.78125 -16.332031 6.78125 -12.625 C 6.78125 -8.925781 7.484375 -5.992188 8.890625 -3.828125 C 10.296875 -1.660156 12.050781 -0.578125 14.15625 -0.578125 C 16.257812 -0.578125 18.023438 -1.660156 19.453125 -3.828125 C 20.878906 -5.992188 21.59375 -8.925781 21.59375 -12.625 C 21.59375 -16.332031 20.878906 -19.269531 19.453125 -21.4375 C 18.023438 -23.601562 16.257812 -24.6875 14.15625 -24.6875 C 12.050781 -24.6875 10.296875 -23.601562 8.890625 -21.4375 Z M 8.890625 -21.4375 "/></g></g></g><path stroke-linecap="butt" transform="matrix(3.741964, 0, 0, 3.75, 216.401913, 167.837274)" fill="none" stroke-linejoin="miter" d="M 0.000114983 -0.000356341 L 42.29283 -0.000356341 " stroke="#1c1c1c" stroke-width="1" stroke-opacity="1" stroke-miterlimit="4"/><path stroke-linecap="butt" transform="matrix(3.75, 0, 0, 3.75, -82.49999, 165.494168)" fill="none" stroke-linejoin="miter" d="M -0.00000264467 0.000513445 L 31.999999 0.000513445 " stroke="#1c1c1c" stroke-width="1" stroke-opacity="1" stroke-miterlimit="4"/><path stroke-linecap="butt" transform="matrix(3.75, 0, 0, 3.75, -14.745615, 215.788111)" fill="none" stroke-linejoin="miter" d="M -0.000127621 0.000253619 L 31.999874 0.000253619 " stroke="#1c1c1c" stroke-width="1" stroke-opacity="1" stroke-miterlimit="4"/><path stroke-linecap="butt" transform="matrix(3.75, 0, 0, 3.75, 320.880219, 217.017583)" fill="none" stroke-linejoin="miter" d="M -0.000349968 0.00051944 L 31.499652 0.00051944 " stroke="#1c1c1c" stroke-width="1" stroke-opacity="1" stroke-miterlimit="4"/></svg>