<svg xmlns="http://www.w3.org/2000/svg" xmlns:xlink="http://www.w3.org/1999/xlink" width="500" zoomAndPan="magnify" viewBox="0 0 375 374.999991" height="500" preserveAspectRatio="xMidYMid meet" version="1.0"><defs><g/></defs><rect x="-37.5" width="450" fill="#ffffff" y="-37.499999" height="449.999989" fill-opacity="1"/><rect x="-37.5" width="450" fill="#ff5757" y="-37.499999" height="449.999989" fill-opacity="1"/><rect x="-37.5" width="450" fill="#ffffff" y="-37.499999" height="449.999989" fill-opacity="1"/><rect x="-37.5" width="450" fill="#ff5757" y="-37.499999" height="449.999989" fill-opacity="1"/><g fill="#000000" fill-opacity="1"><g transform="translate(37.500002, 184.623079)"><g><path d="M 0.9375 0.0625 L 1 -0.8125 L 4.25 -1.25 C 4.539062 -1.289062 4.789062 -1.5625 5 -2.0625 L 18.5 -43.75 L 22.625 -43.75 L 37 -1.1875 L 41.3125 -0.9375 C 41.3125 -0.894531 41.289062 -0.582031 41.25 0 L 28.75 0.0625 C 28.75 -0.3125 28.769531 -0.601562 28.8125 -0.8125 L 32.0625 -1.25 C 32.394531 -1.289062 32.5625 -1.539062 32.5625 -2 L 29.125 -12.1875 L 9.625 -12.1875 L 6.3125 -1.3125 L 13.5625 -0.9375 C 13.5625 -0.894531 13.539062 -0.582031 13.5 0 Z M 18.9375 -42.5625 L 10 -13.4375 L 28.6875 -13.4375 Z M 18.9375 -42.5625 "/></g></g></g><g fill="#000000" fill-opacity="1"><g transform="translate(79.372329, 184.623079)"><g><path d="M 3.4375 0.0625 L 3.5 -0.8125 L 6.75 -1.25 C 7.125 -1.289062 7.3125 -1.582031 7.3125 -2.125 L 7.3125 -29.1875 C 7.226562 -29.519531 7.101562 -29.6875 6.9375 -29.6875 L 3.125 -29.8125 L 3.1875 -30.6875 C 5.8125 -31.0625 7.582031 -31.25 8.5 -31.25 C 10.164062 -31.25 11.101562 -30.519531 11.3125 -29.0625 L 11.375 -29.0625 L 11.375 -27.75 C 14.789062 -30.082031 18.0625 -31.3125 21.1875 -31.4375 C 24.226562 -31.4375 26.539062 -30.832031 28.125 -29.625 C 28.832031 -29.082031 29.46875 -28.238281 30.03125 -27.09375 C 30.59375 -25.945312 30.875 -24.582031 30.875 -23 L 30.875 -1.25 L 35.5625 -0.9375 C 35.5625 -0.894531 35.539062 -0.582031 35.5 0 L 23 0.0625 C 23 -0.3125 23.019531 -0.601562 23.0625 -0.8125 L 26.3125 -1.25 C 26.644531 -1.289062 26.8125 -1.582031 26.8125 -2.125 L 26.8125 -21.4375 C 26.8125 -23.101562 26.59375 -24.519531 26.15625 -25.6875 C 25.71875 -26.851562 25.226562 -27.707031 24.6875 -28.25 C 24.144531 -28.789062 23.476562 -29.207031 22.6875 -29.5 C 21.769531 -29.832031 20.8125 -30 19.8125 -30 C 17.3125 -29.957031 14.5 -28.976562 11.375 -27.0625 L 11.375 -1.25 L 16.0625 -0.9375 C 16.0625 -0.894531 16.039062 -0.582031 16 0 Z M 3.4375 0.0625 "/></g></g></g><g fill="#000000" fill-opacity="1"><g transform="translate(118.744809, 184.623079)"><g><path d="M 28.3125 -44.3125 L 28.3125 -3.25 C 28.3125 -1.957031 28.644531 -1.3125 29.3125 -1.3125 L 33.0625 -1.125 L 33 -0.1875 C 31 0.144531 28.914062 0.3125 26.75 0.3125 C 26.289062 0.269531 25.800781 0.0390625 25.28125 -0.375 C 24.757812 -0.789062 24.457031 -1.332031 24.375 -2 C 22 -0.5 19.25 0.25 16.125 0.25 C 13.082031 0.25 10.269531 -0.601562 7.6875 -2.3125 C 6.226562 -3.269531 5.050781 -4.78125 4.15625 -6.84375 C 3.257812 -8.90625 2.8125 -11.414062 2.8125 -14.375 C 2.8125 -19.832031 4.207031 -24 7 -26.875 C 9.957031 -29.957031 13.332031 -31.5 17.125 -31.5 C 19.457031 -31.5 21.832031 -30.894531 24.25 -29.6875 L 24.25 -44.625 C 24.25 -45.082031 24.125 -45.3125 23.875 -45.3125 L 20.0625 -45.4375 L 20.125 -46.3125 C 22.75 -46.6875 24.550781 -46.875 25.53125 -46.875 C 26.507812 -46.875 27.21875 -46.601562 27.65625 -46.0625 C 28.09375 -45.519531 28.3125 -44.9375 28.3125 -44.3125 Z M 16.9375 -0.875 C 19.476562 -0.875 21.914062 -1.4375 24.25 -2.5625 L 24.25 -28.6875 C 22.414062 -29.8125 20.601562 -30.375 18.8125 -30.375 C 15.226562 -30.375 12.34375 -29 10.15625 -26.25 C 7.96875 -23.5 6.875 -19.5625 6.875 -14.4375 C 6.875 -5.394531 10.226562 -0.875 16.9375 -0.875 Z M 16.9375 -0.875 "/></g></g></g><g fill="#000000" fill-opacity="1"><g transform="translate(154.929995, 184.623079)"><g><path d="M 11.3125 -28.6875 L 11.3125 -23.6875 C 14.601562 -28.519531 17.832031 -30.976562 21 -31.0625 C 21.25 -31.0625 21.5 -31.0625 21.75 -31.0625 L 25.25 -30.625 L 23.625 -26.875 C 22.832031 -27.664062 21.8125 -28.0625 20.5625 -28.0625 C 17.519531 -28.019531 14.4375 -26 11.3125 -22 L 11.3125 -1.25 L 16.625 -0.9375 C 16.625 -0.894531 16.601562 -0.582031 16.5625 0 L 3.4375 0.0625 C 3.4375 -0.3125 3.457031 -0.601562 3.5 -0.8125 L 6.75 -1.25 C 7.082031 -1.289062 7.25 -1.582031 7.25 -2.125 L 7.25 -29.25 C 7.164062 -29.539062 7.039062 -29.6875 6.875 -29.6875 L 3.125 -29.8125 L 3.1875 -30.6875 C 5.4375 -31.0625 7.144531 -31.25 8.3125 -31.25 C 9.476562 -31.25 10.269531 -30.976562 10.6875 -30.4375 C 11.101562 -29.894531 11.3125 -29.3125 11.3125 -28.6875 Z M 11.3125 -28.6875 "/></g></g></g><g fill="#000000" fill-opacity="1"><g transform="translate(182.678219, 184.623079)"><g><path d="M 6.875 -14.375 C 6.875 -5.375 10.375 -0.875 17.375 -0.875 C 19.207031 -0.875 21.164062 -1.070312 23.25 -1.46875 C 25.332031 -1.863281 26.664062 -2.226562 27.25 -2.5625 L 27.6875 -1.9375 C 26.726562 -1.3125 25.15625 -0.789062 22.96875 -0.375 C 20.78125 0.0390625 18.78125 0.25 16.96875 0.25 C 15.15625 0.25 13.53125 0.0625 12.09375 -0.3125 C 10.65625 -0.6875 9.1875 -1.351562 7.6875 -2.3125 C 6.1875 -3.269531 5 -4.769531 4.125 -6.8125 C 3.25 -8.851562 2.8125 -11.351562 2.8125 -14.3125 C 2.8125 -19.8125 4.226562 -24.019531 7.0625 -26.9375 C 10.019531 -29.976562 13.457031 -31.5 17.375 -31.5 C 21.289062 -31.5 24.28125 -30.414062 26.34375 -28.25 C 28.40625 -26.082031 29.4375 -23.039062 29.4375 -19.125 C 29.4375 -18.289062 29.375 -17.394531 29.25 -16.4375 L 6.9375 -16.4375 C 6.894531 -15.976562 6.875 -15.289062 6.875 -14.375 Z M 25.75 -19.5625 C 25.75 -22.6875 25.0625 -25.238281 23.6875 -27.21875 C 22.3125 -29.195312 20.4375 -30.1875 18.0625 -30.1875 C 14.976562 -30.1875 12.375 -28.832031 10.25 -26.125 C 8.539062 -24 7.476562 -21.164062 7.0625 -17.625 L 25.6875 -17.625 C 25.726562 -18.082031 25.75 -18.726562 25.75 -19.5625 Z M 26.0625 -46.875 L 27.9375 -46.4375 L 20.5 -37.1875 L 19.5625 -37.6875 Z M 26.0625 -46.875 "/></g></g></g><g fill="#000000" fill-opacity="1"><g transform="translate(110.677087, 231.982103)"><g><path d="M 29.1875 0 L 29.140625 -0.8125 C 29.097656 -1.632812 28.785156 -2.046875 28.203125 -2.046875 C 27.890625 -2.046875 27.320312 -1.832031 26.5 -1.40625 C 23.96875 0 21.414062 0.703125 18.84375 0.703125 C 13.925781 0.703125 9.894531 -0.992188 6.75 -4.390625 C 3.613281 -7.785156 2.046875 -12.453125 2.046875 -18.390625 C 2.046875 -24.335938 3.59375 -29.019531 6.6875 -32.4375 C 9.789062 -35.851562 13.84375 -37.5625 18.84375 -37.5625 C 21.375 -37.5625 23.90625 -36.914062 26.4375 -35.625 C 27.257812 -35.195312 27.847656 -34.984375 28.203125 -34.984375 C 28.785156 -34.984375 29.097656 -35.394531 29.140625 -36.21875 L 29.1875 -37.203125 L 30.296875 -37.203125 L 30.296875 -27.078125 L 29.25 -27.078125 C 28.894531 -30.085938 27.769531 -32.300781 25.875 -33.71875 C 23.988281 -35.144531 21.644531 -35.859375 18.84375 -35.859375 C 15.289062 -35.859375 12.429688 -34.296875 10.265625 -31.171875 C 8.097656 -28.054688 7.015625 -23.785156 7.015625 -18.359375 C 7.015625 -12.941406 8.109375 -8.691406 10.296875 -5.609375 C 12.484375 -2.535156 15.332031 -1 18.84375 -1 C 21.644531 -1 23.988281 -1.707031 25.875 -3.125 C 27.769531 -4.550781 28.894531 -6.765625 29.25 -9.765625 L 30.296875 -9.765625 L 30.296875 0 Z M 29.1875 0 "/></g></g></g><g fill="#000000" fill-opacity="1"><g transform="translate(143.605971, 231.982103)"><g><path d="M 16.734375 -13.625 L 16.796875 -15.671875 L 16.796875 -17.71875 C 16.796875 -22.28125 15.3125 -24.5625 12.34375 -24.5625 C 11.050781 -24.5625 10.046875 -24.125 9.328125 -23.25 C 8.609375 -22.375 8.25 -21.347656 8.25 -20.171875 C 8.25 -19.003906 8.40625 -17.992188 8.71875 -17.140625 C 8.050781 -16.554688 7.132812 -16.265625 5.96875 -16.265625 C 4.800781 -16.265625 4.21875 -17.21875 4.21875 -19.125 C 4.21875 -21.039062 4.96875 -22.660156 6.46875 -23.984375 C 7.96875 -25.304688 10.101562 -25.96875 12.875 -25.96875 C 18.289062 -25.96875 21 -22.769531 21 -16.375 L 21 -4.390625 C 21 -2.285156 21.582031 -1.234375 22.75 -1.234375 C 23.300781 -1.234375 23.78125 -1.484375 24.1875 -1.984375 C 24.59375 -2.492188 24.796875 -3.078125 24.796875 -3.734375 C 24.796875 -4.398438 24.738281 -5.023438 24.625 -5.609375 L 25.734375 -5.796875 C 25.890625 -5.203125 25.96875 -4.554688 25.96875 -3.859375 C 25.96875 -2.453125 25.546875 -1.335938 24.703125 -0.515625 C 23.867188 0.296875 22.769531 0.703125 21.40625 0.703125 C 20.039062 0.703125 18.929688 0.148438 18.078125 -0.953125 C 17.222656 -2.066406 16.796875 -3.738281 16.796875 -5.96875 L 16.796875 -7.015625 C 16.128906 -4.367188 15.070312 -2.421875 13.625 -1.171875 C 12.1875 0.078125 10.519531 0.703125 8.625 0.703125 C 6.738281 0.703125 5.21875 0.109375 4.0625 -1.078125 C 2.914062 -2.265625 2.34375 -3.84375 2.34375 -5.8125 C 2.34375 -7.789062 3.257812 -9.546875 5.09375 -11.078125 C 6.925781 -12.617188 9.554688 -13.390625 12.984375 -13.390625 C 13.722656 -13.390625 14.972656 -13.296875 16.734375 -13.109375 Z M 9.9375 -1.515625 C 11.582031 -1.515625 13.054688 -2.441406 14.359375 -4.296875 C 15.671875 -6.148438 16.441406 -8.753906 16.671875 -12.109375 C 16.285156 -12.148438 15.738281 -12.171875 15.03125 -12.171875 C 11.914062 -12.171875 9.679688 -11.515625 8.328125 -10.203125 C 6.984375 -8.898438 6.3125 -7.390625 6.3125 -5.671875 C 6.3125 -4.546875 6.644531 -3.570312 7.3125 -2.75 C 7.976562 -1.925781 8.851562 -1.515625 9.9375 -1.515625 Z M 9.9375 -1.515625 "/></g></g></g><g fill="#000000" fill-opacity="1"><g transform="translate(170.452081, 231.982103)"><g><path d="M 17.25 -25.96875 C 18.769531 -25.96875 20.007812 -25.320312 20.96875 -24.03125 C 21.925781 -22.75 22.40625 -21.132812 22.40625 -19.1875 C 22.40625 -17.238281 21.601562 -16.265625 20 -16.265625 C 19.070312 -16.265625 18.3125 -16.554688 17.71875 -17.140625 C 18.226562 -18.273438 18.484375 -19.425781 18.484375 -20.59375 C 18.484375 -22.65625 17.625 -23.6875 15.90625 -23.6875 C 14.46875 -23.6875 13.191406 -22.488281 12.078125 -20.09375 C 10.960938 -17.695312 10.40625 -14.21875 10.40625 -9.65625 L 10.40625 -1.875 C 10.40625 -1.320312 10.679688 -1.046875 11.234375 -1.046875 L 15.15625 -1.046875 L 15.15625 0 L 2.625 0 L 2.625 -1.046875 L 5.375 -1.046875 C 5.925781 -1.046875 6.203125 -1.320312 6.203125 -1.875 L 6.203125 -23.40625 C 6.203125 -23.945312 5.925781 -24.21875 5.375 -24.21875 L 2.625 -24.21875 L 2.625 -25.265625 L 5.5 -25.265625 C 7.84375 -25.265625 9.476562 -25.382812 10.40625 -25.625 L 10.40625 -18.140625 C 11.03125 -20.828125 11.945312 -22.800781 13.15625 -24.0625 C 14.363281 -25.332031 15.726562 -25.96875 17.25 -25.96875 Z M 17.25 -25.96875 "/></g></g></g><g fill="#000000" fill-opacity="1"><g transform="translate(193.145518, 231.982103)"><g><path d="M 16.96875 -25.265625 L 24.390625 -25.265625 L 24.390625 -24.21875 L 22.234375 -24.21875 C 21.878906 -24.21875 21.601562 -23.945312 21.40625 -23.40625 L 12.6875 0 L 11.109375 0 L 2.40625 -23.40625 C 2.207031 -23.945312 1.929688 -24.21875 1.578125 -24.21875 L -0.578125 -24.21875 L -0.578125 -25.265625 L 9.359375 -25.265625 L 9.359375 -24.21875 L 6.4375 -24.21875 L 13.15625 -5.734375 L 19.953125 -24.21875 L 16.96875 -24.21875 Z M 16.96875 -25.265625 "/></g></g></g><g fill="#000000" fill-opacity="1"><g transform="translate(216.950235, 231.982103)"><g><path d="M 16.734375 -13.625 L 16.796875 -15.671875 L 16.796875 -17.71875 C 16.796875 -22.28125 15.3125 -24.5625 12.34375 -24.5625 C 11.050781 -24.5625 10.046875 -24.125 9.328125 -23.25 C 8.609375 -22.375 8.25 -21.347656 8.25 -20.171875 C 8.25 -19.003906 8.40625 -17.992188 8.71875 -17.140625 C 8.050781 -16.554688 7.132812 -16.265625 5.96875 -16.265625 C 4.800781 -16.265625 4.21875 -17.21875 4.21875 -19.125 C 4.21875 -21.039062 4.96875 -22.660156 6.46875 -23.984375 C 7.96875 -25.304688 10.101562 -25.96875 12.875 -25.96875 C 18.289062 -25.96875 21 -22.769531 21 -16.375 L 21 -4.390625 C 21 -2.285156 21.582031 -1.234375 22.75 -1.234375 C 23.300781 -1.234375 23.78125 -1.484375 24.1875 -1.984375 C 24.59375 -2.492188 24.796875 -3.078125 24.796875 -3.734375 C 24.796875 -4.398438 24.738281 -5.023438 24.625 -5.609375 L 25.734375 -5.796875 C 25.890625 -5.203125 25.96875 -4.554688 25.96875 -3.859375 C 25.96875 -2.453125 25.546875 -1.335938 24.703125 -0.515625 C 23.867188 0.296875 22.769531 0.703125 21.40625 0.703125 C 20.039062 0.703125 18.929688 0.148438 18.078125 -0.953125 C 17.222656 -2.066406 16.796875 -3.738281 16.796875 -5.96875 L 16.796875 -7.015625 C 16.128906 -4.367188 15.070312 -2.421875 13.625 -1.171875 C 12.1875 0.078125 10.519531 0.703125 8.625 0.703125 C 6.738281 0.703125 5.21875 0.109375 4.0625 -1.078125 C 2.914062 -2.265625 2.34375 -3.84375 2.34375 -5.8125 C 2.34375 -7.789062 3.257812 -9.546875 5.09375 -11.078125 C 6.925781 -12.617188 9.554688 -13.390625 12.984375 -13.390625 C 13.722656 -13.390625 14.972656 -13.296875 16.734375 -13.109375 Z M 9.9375 -1.515625 C 11.582031 -1.515625 13.054688 -2.441406 14.359375 -4.296875 C 15.671875 -6.148438 16.441406 -8.753906 16.671875 -12.109375 C 16.285156 -12.148438 15.738281 -12.171875 15.03125 -12.171875 C 11.914062 -12.171875 9.679688 -11.515625 8.328125 -10.203125 C 6.984375 -8.898438 6.3125 -7.390625 6.3125 -5.671875 C 6.3125 -4.546875 6.644531 -3.570312 7.3125 -2.75 C 7.976562 -1.925781 8.851562 -1.515625 9.9375 -1.515625 Z M 9.9375 -1.515625 "/></g></g></g><g fill="#000000" fill-opacity="1"><g transform="translate(243.796344, 231.982103)"><g><path d="M 5.328125 -1.875 L 5.328125 -36.03125 C 5.328125 -36.582031 5.050781 -36.859375 4.5 -36.859375 L 1.75 -36.859375 L 1.75 -37.90625 L 4.625 -37.90625 C 6.957031 -37.90625 8.59375 -38.023438 9.53125 -38.265625 L 9.53125 -1.875 C 9.53125 -1.320312 9.804688 -1.046875 10.359375 -1.046875 L 13.109375 -1.046875 L 13.109375 0 L 1.75 0 L 1.75 -1.046875 L 4.5 -1.046875 C 5.050781 -1.046875 5.328125 -1.320312 5.328125 -1.875 Z M 5.328125 -1.875 "/></g></g></g><g fill="#000000" fill-opacity="1"><g transform="translate(258.652354, 231.982103)"><g><path d="M 25.5625 -17.078125 L 25.5625 -1.75 C 25.5625 -1.28125 25.835938 -1.046875 26.390625 -1.046875 L 29.140625 -1.046875 L 29.140625 0 L 18.609375 0 L 18.609375 -1.046875 L 20.53125 -1.046875 C 21.082031 -1.046875 21.359375 -1.28125 21.359375 -1.75 L 21.359375 -17.84375 C 21.359375 -19.832031 20.914062 -21.300781 20.03125 -22.25 C 19.15625 -23.207031 18 -23.6875 16.5625 -23.6875 C 14.53125 -23.6875 12.847656 -22.488281 11.515625 -20.09375 C 10.191406 -17.695312 9.53125 -14.253906 9.53125 -9.765625 L 9.53125 -1.875 C 9.53125 -1.320312 9.804688 -1.046875 10.359375 -1.046875 L 12.28125 -1.046875 L 12.28125 0 L 1.75 0 L 1.75 -1.046875 L 4.5 -1.046875 C 5.050781 -1.046875 5.328125 -1.28125 5.328125 -1.75 L 5.328125 -36.03125 C 5.328125 -36.582031 5.050781 -36.859375 4.5 -36.859375 L 1.75 -36.859375 L 1.75 -37.90625 L 4.625 -37.90625 C 6.957031 -37.90625 8.59375 -38.023438 9.53125 -38.265625 L 9.53125 -17.671875 C 10.863281 -23.203125 13.789062 -25.96875 18.3125 -25.96875 C 20.34375 -25.96875 22.054688 -25.238281 23.453125 -23.78125 C 24.859375 -22.320312 25.5625 -20.085938 25.5625 -17.078125 Z M 25.5625 -17.078125 "/></g></g></g><g fill="#000000" fill-opacity="1"><g transform="translate(289.534153, 231.982103)"><g><path d="M 5.609375 -2.859375 C 3.429688 -5.242188 2.34375 -8.503906 2.34375 -12.640625 C 2.34375 -16.773438 3.429688 -20.03125 5.609375 -22.40625 C 7.796875 -24.78125 10.644531 -25.96875 14.15625 -25.96875 C 17.664062 -25.96875 20.519531 -24.78125 22.71875 -22.40625 C 24.925781 -20.03125 26.03125 -16.773438 26.03125 -12.640625 C 26.03125 -8.503906 24.925781 -5.242188 22.71875 -2.859375 C 20.519531 -0.484375 17.664062 0.703125 14.15625 0.703125 C 10.644531 0.703125 7.796875 -0.484375 5.609375 -2.859375 Z M 8.890625 -21.4375 C 7.484375 -19.269531 6.78125 -16.332031 6.78125 -12.625 C 6.78125 -8.925781 7.484375 -5.992188 8.890625 -3.828125 C 10.296875 -1.660156 12.050781 -0.578125 14.15625 -0.578125 C 16.257812 -0.578125 18.023438 -1.660156 19.453125 -3.828125 C 20.878906 -5.992188 21.59375 -8.925781 21.59375 -12.625 C 21.59375 -16.332031 20.878906 -19.269531 19.453125 -21.4375 C 18.023438 -23.601562 16.257812 -24.6875 14.15625 -24.6875 C 12.050781 -24.6875 10.296875 -23.601562 8.890625 -21.4375 Z M 8.890625 -21.4375 "/></g></g></g><path stroke-linecap="butt" transform="matrix(3.741964, 0, 0, 3.75, 216.401913, 167.837259)" fill="none" stroke-linejoin="miter" d="M 0.000114983 -0.000352501 L 42.29283 -0.000352501 " stroke="#000000" stroke-width="1" stroke-opacity="1" stroke-miterlimit="4"/><path stroke-linecap="butt" transform="matrix(3.75, 0, 0, 3.75, -82.49999, 165.494183)" fill="none" stroke-linejoin="miter" d="M -0.00000264467 0.000509605 L 31.999999 0.000509605 " stroke="#000000" stroke-width="1" stroke-opacity="1" stroke-miterlimit="4"/><path stroke-linecap="butt" transform="matrix(3.75, 0, 0, 3.75, -14.745615, 215.788083)" fill="none" stroke-linejoin="miter" d="M -0.000127621 0.000261299 L 31.999874 0.000261299 " stroke="#000000" stroke-width="1" stroke-opacity="1" stroke-miterlimit="4"/><path stroke-linecap="butt" transform="matrix(3.75, 0, 0, 3.75, 320.880219, 217.017598)" fill="none" stroke-linejoin="miter" d="M -0.000349968 0.0005156 L 31.499652 0.0005156 " stroke="#000000" stroke-width="1" stroke-opacity="1" stroke-miterlimit="4"/></svg>