<svg xmlns="http://www.w3.org/2000/svg" xmlns:xlink="http://www.w3.org/1999/xlink" width="500" zoomAndPan="magnify" viewBox="0 0 375 374.999991" height="500" preserveAspectRatio="xMidYMid meet" version="1.0"><defs><g/></defs><rect x="-37.5" width="450" fill="#ffffff" y="-37.499999" height="449.999989" fill-opacity="1"/><rect x="-37.5" width="450" fill="#f4f7f5" y="-37.499999" height="449.999989" fill-opacity="1"/><rect x="-37.5" width="450" fill="#ffffff" y="-37.499999" height="449.999989" fill-opacity="1"/><rect x="-37.5" width="450" fill="#f4f7f5" y="-37.499999" height="449.999989" fill-opacity="1"/><g fill="#1c1c1c" fill-opacity="1"><g transform="translate(24.030354, 185.998385)"><g><path d="M 1.1875 0.078125 L 1.265625 -1.03125 L 5.359375 -1.578125 C 5.734375 -1.628906 6.050781 -1.972656 6.3125 -2.609375 L 23.34375 -55.21875 L 28.546875 -55.21875 L 46.6875 -1.5 L 52.140625 -1.1875 C 52.140625 -1.132812 52.113281 -0.738281 52.0625 0 L 36.28125 0.078125 C 36.28125 -0.390625 36.304688 -0.757812 36.359375 -1.03125 L 40.46875 -1.578125 C 40.882812 -1.628906 41.09375 -1.945312 41.09375 -2.53125 L 36.75 -15.375 L 12.140625 -15.375 L 7.96875 -1.65625 L 17.109375 -1.1875 C 17.109375 -1.132812 17.082031 -0.738281 17.03125 0 Z M 23.90625 -53.71875 L 12.625 -16.953125 L 36.203125 -16.953125 Z M 23.90625 -53.71875 "/></g></g></g><g fill="#1c1c1c" fill-opacity="1"><g transform="translate(76.871328, 185.998385)"><g><path d="M 4.34375 0.078125 L 4.421875 -1.03125 L 8.515625 -1.578125 C 8.992188 -1.628906 9.234375 -2 9.234375 -2.6875 L 9.234375 -36.828125 C 9.128906 -37.253906 8.96875 -37.46875 8.75 -37.46875 L 3.9375 -37.625 L 4.015625 -38.734375 C 7.328125 -39.203125 9.566406 -39.4375 10.734375 -39.4375 C 12.828125 -39.4375 14.007812 -38.515625 14.28125 -36.671875 L 14.359375 -36.671875 L 14.359375 -35.015625 C 18.671875 -37.960938 22.796875 -39.515625 26.734375 -39.671875 C 30.578125 -39.671875 33.5 -38.910156 35.5 -37.390625 C 36.382812 -36.703125 37.179688 -35.632812 37.890625 -34.1875 C 38.609375 -32.738281 38.96875 -31.019531 38.96875 -29.03125 L 38.96875 -1.578125 L 44.875 -1.1875 C 44.875 -1.132812 44.847656 -0.738281 44.796875 0 L 29.03125 0.078125 C 29.03125 -0.390625 29.054688 -0.757812 29.109375 -1.03125 L 33.203125 -1.578125 C 33.628906 -1.628906 33.84375 -2 33.84375 -2.6875 L 33.84375 -27.046875 C 33.84375 -29.148438 33.566406 -30.9375 33.015625 -32.40625 C 32.460938 -33.882812 31.84375 -34.960938 31.15625 -35.640625 C 30.46875 -36.328125 29.625 -36.859375 28.625 -37.234375 C 27.46875 -37.648438 26.257812 -37.859375 25 -37.859375 C 21.84375 -37.804688 18.296875 -36.570312 14.359375 -34.15625 L 14.359375 -1.578125 L 20.265625 -1.1875 C 20.265625 -1.132812 20.238281 -0.738281 20.1875 0 Z M 4.34375 0.078125 "/></g></g></g><g fill="#1c1c1c" fill-opacity="1"><g transform="translate(126.557623, 185.998385)"><g><path d="M 35.734375 -55.921875 L 35.734375 -4.09375 C 35.734375 -2.46875 36.15625 -1.65625 37 -1.65625 L 41.71875 -1.421875 L 41.640625 -0.234375 C 39.117188 0.179688 36.492188 0.390625 33.765625 0.390625 C 33.179688 0.335938 32.5625 0.0507812 31.90625 -0.46875 C 31.25 -1 30.867188 -1.6875 30.765625 -2.53125 C 27.765625 -0.632812 24.289062 0.3125 20.34375 0.3125 C 16.507812 0.3125 12.960938 -0.765625 9.703125 -2.921875 C 7.859375 -4.128906 6.367188 -6.035156 5.234375 -8.640625 C 4.109375 -11.242188 3.546875 -14.410156 3.546875 -18.140625 C 3.546875 -25.023438 5.304688 -30.285156 8.828125 -33.921875 C 12.566406 -37.804688 16.828125 -39.75 21.609375 -39.75 C 24.554688 -39.75 27.554688 -38.988281 30.609375 -37.46875 L 30.609375 -56.3125 C 30.609375 -56.894531 30.445312 -57.1875 30.125 -57.1875 L 25.3125 -57.34375 L 25.390625 -58.453125 C 28.703125 -58.921875 30.976562 -59.15625 32.21875 -59.15625 C 33.457031 -59.15625 34.351562 -58.8125 34.90625 -58.125 C 35.457031 -57.445312 35.734375 -56.710938 35.734375 -55.921875 Z M 21.375 -1.109375 C 24.582031 -1.109375 27.660156 -1.816406 30.609375 -3.234375 L 30.609375 -36.203125 C 28.296875 -37.617188 26.003906 -38.328125 23.734375 -38.328125 C 19.210938 -38.328125 15.570312 -36.59375 12.8125 -33.125 C 10.050781 -29.65625 8.671875 -24.6875 8.671875 -18.21875 C 8.671875 -6.8125 12.90625 -1.109375 21.375 -1.109375 Z M 21.375 -1.109375 "/></g></g></g><g fill="#1c1c1c" fill-opacity="1"><g transform="translate(172.221698, 185.998385)"><g><path d="M 14.28125 -36.203125 L 14.28125 -29.890625 C 18.425781 -35.992188 22.5 -39.097656 26.5 -39.203125 C 26.8125 -39.203125 27.128906 -39.203125 27.453125 -39.203125 L 31.859375 -38.65625 L 29.8125 -33.921875 C 28.8125 -34.921875 27.523438 -35.421875 25.953125 -35.421875 C 22.109375 -35.367188 18.21875 -32.816406 14.28125 -27.765625 L 14.28125 -1.578125 L 20.984375 -1.1875 C 20.984375 -1.132812 20.957031 -0.738281 20.90625 0 L 4.34375 0.078125 C 4.34375 -0.390625 4.367188 -0.757812 4.421875 -1.03125 L 8.515625 -1.578125 C 8.941406 -1.628906 9.15625 -2 9.15625 -2.6875 L 9.15625 -36.90625 C 9.039062 -37.28125 8.878906 -37.46875 8.671875 -37.46875 L 3.9375 -37.625 L 4.015625 -38.734375 C 6.859375 -39.203125 9.015625 -39.4375 10.484375 -39.4375 C 11.960938 -39.4375 12.960938 -39.09375 13.484375 -38.40625 C 14.015625 -37.726562 14.28125 -36.992188 14.28125 -36.203125 Z M 14.28125 -36.203125 "/></g></g></g><g fill="#1c1c1c" fill-opacity="1"><g transform="translate(207.238705, 185.998385)"><g><path d="M 8.671875 -18.140625 C 8.671875 -6.785156 13.085938 -1.109375 21.921875 -1.109375 C 24.234375 -1.109375 26.703125 -1.359375 29.328125 -1.859375 C 31.960938 -2.359375 33.648438 -2.816406 34.390625 -3.234375 L 34.9375 -2.4375 C 33.726562 -1.65625 31.742188 -1 28.984375 -0.46875 C 26.222656 0.0507812 23.695312 0.3125 21.40625 0.3125 C 19.125 0.3125 17.078125 0.078125 15.265625 -0.390625 C 13.453125 -0.867188 11.597656 -1.710938 9.703125 -2.921875 C 7.804688 -4.128906 6.304688 -6.019531 5.203125 -8.59375 C 4.097656 -11.175781 3.546875 -14.332031 3.546875 -18.0625 C 3.546875 -25 5.332031 -30.3125 8.90625 -34 C 12.644531 -37.832031 16.984375 -39.75 21.921875 -39.75 C 26.867188 -39.75 30.644531 -38.378906 33.25 -35.640625 C 35.851562 -32.910156 37.15625 -29.078125 37.15625 -24.140625 C 37.15625 -23.085938 37.070312 -21.957031 36.90625 -20.75 L 8.75 -20.75 C 8.695312 -20.164062 8.671875 -19.296875 8.671875 -18.140625 Z M 32.5 -24.6875 C 32.5 -28.632812 31.628906 -31.851562 29.890625 -34.34375 C 28.160156 -36.84375 25.796875 -38.09375 22.796875 -38.09375 C 18.898438 -38.09375 15.613281 -36.382812 12.9375 -32.96875 C 10.78125 -30.289062 9.4375 -26.71875 8.90625 -22.25 L 32.421875 -22.25 C 32.472656 -22.820312 32.5 -23.632812 32.5 -24.6875 Z M 32.890625 -59.15625 L 35.25 -58.609375 L 25.875 -46.9375 L 24.6875 -47.5625 Z M 32.890625 -59.15625 "/></g></g></g><g fill="#1c1c1c" fill-opacity="1"><g transform="translate(94.04827, 229.933931)"><g><path d="M 34.828125 0 L 34.75 -0.984375 C 34.707031 -1.953125 34.335938 -2.4375 33.640625 -2.4375 C 33.265625 -2.4375 32.585938 -2.179688 31.609375 -1.671875 C 28.585938 0.00390625 25.539062 0.84375 22.46875 0.84375 C 16.601562 0.84375 11.796875 -1.175781 8.046875 -5.21875 C 4.304688 -9.269531 2.4375 -14.84375 2.4375 -21.9375 C 2.4375 -29.039062 4.285156 -34.625 7.984375 -38.6875 C 11.679688 -42.757812 16.507812 -44.796875 22.46875 -44.796875 C 25.488281 -44.796875 28.515625 -44.03125 31.546875 -42.5 C 32.515625 -41.988281 33.210938 -41.734375 33.640625 -41.734375 C 34.335938 -41.734375 34.707031 -42.21875 34.75 -43.1875 L 34.828125 -44.375 L 36.140625 -44.375 L 36.140625 -32.3125 L 34.890625 -32.3125 C 34.472656 -35.894531 33.132812 -38.535156 30.875 -40.234375 C 28.625 -41.929688 25.820312 -42.78125 22.46875 -42.78125 C 18.238281 -42.78125 14.832031 -40.914062 12.25 -37.1875 C 9.664062 -33.46875 8.375 -28.375 8.375 -21.90625 C 8.375 -15.445312 9.675781 -10.378906 12.28125 -6.703125 C 14.882812 -3.023438 18.28125 -1.1875 22.46875 -1.1875 C 25.820312 -1.1875 28.625 -2.035156 30.875 -3.734375 C 33.132812 -5.429688 34.472656 -8.070312 34.890625 -11.65625 L 36.140625 -11.65625 L 36.140625 0 Z M 34.828125 0 "/></g></g></g><g fill="#1c1c1c" fill-opacity="1"><g transform="translate(133.330674, 229.933931)"><g><path d="M 19.953125 -16.265625 L 20.03125 -18.703125 L 20.03125 -21.140625 C 20.03125 -26.585938 18.257812 -29.3125 14.71875 -29.3125 C 13.1875 -29.3125 11.988281 -28.785156 11.125 -27.734375 C 10.269531 -26.691406 9.84375 -25.472656 9.84375 -24.078125 C 9.84375 -22.679688 10.023438 -21.472656 10.390625 -20.453125 C 9.609375 -19.753906 8.519531 -19.40625 7.125 -19.40625 C 5.726562 -19.40625 5.03125 -20.539062 5.03125 -22.8125 C 5.03125 -25.09375 5.921875 -27.023438 7.703125 -28.609375 C 9.492188 -30.191406 12.046875 -30.984375 15.359375 -30.984375 C 21.816406 -30.984375 25.046875 -27.164062 25.046875 -19.53125 L 25.046875 -5.234375 C 25.046875 -2.722656 25.742188 -1.46875 27.140625 -1.46875 C 27.796875 -1.46875 28.367188 -1.769531 28.859375 -2.375 C 29.347656 -2.976562 29.59375 -3.675781 29.59375 -4.46875 C 29.59375 -5.257812 29.519531 -6.003906 29.375 -6.703125 L 30.703125 -6.90625 C 30.890625 -6.207031 30.984375 -5.441406 30.984375 -4.609375 C 30.984375 -2.929688 30.484375 -1.601562 29.484375 -0.625 C 28.484375 0.351562 27.164062 0.84375 25.53125 0.84375 C 23.90625 0.84375 22.582031 0.179688 21.5625 -1.140625 C 20.539062 -2.472656 20.03125 -4.46875 20.03125 -7.125 L 20.03125 -8.375 C 19.238281 -5.207031 17.976562 -2.878906 16.25 -1.390625 C 14.53125 0.0976562 12.539062 0.84375 10.28125 0.84375 C 8.03125 0.84375 6.21875 0.132812 4.84375 -1.28125 C 3.476562 -2.707031 2.796875 -4.59375 2.796875 -6.9375 C 2.796875 -9.289062 3.882812 -11.382812 6.0625 -13.21875 C 8.25 -15.0625 11.390625 -15.984375 15.484375 -15.984375 C 16.367188 -15.984375 17.859375 -15.863281 19.953125 -15.625 Z M 11.859375 -1.8125 C 13.816406 -1.8125 15.570312 -2.914062 17.125 -5.125 C 18.6875 -7.332031 19.609375 -10.4375 19.890625 -14.4375 C 19.421875 -14.488281 18.769531 -14.515625 17.9375 -14.515625 C 14.207031 -14.515625 11.539062 -13.734375 9.9375 -12.171875 C 8.332031 -10.617188 7.53125 -8.816406 7.53125 -6.765625 C 7.53125 -5.421875 7.925781 -4.257812 8.71875 -3.28125 C 9.507812 -2.300781 10.554688 -1.8125 11.859375 -1.8125 Z M 11.859375 -1.8125 "/></g></g></g><g fill="#1c1c1c" fill-opacity="1"><g transform="translate(165.356653, 229.933931)"><g><path d="M 20.578125 -30.984375 C 22.398438 -30.984375 23.878906 -30.210938 25.015625 -28.671875 C 26.148438 -27.140625 26.71875 -25.210938 26.71875 -22.890625 C 26.71875 -20.566406 25.765625 -19.40625 23.859375 -19.40625 C 22.742188 -19.40625 21.835938 -19.753906 21.140625 -20.453125 C 21.742188 -21.796875 22.046875 -23.164062 22.046875 -24.5625 C 22.046875 -27.03125 21.023438 -28.265625 18.984375 -28.265625 C 17.265625 -28.265625 15.738281 -26.832031 14.40625 -23.96875 C 13.082031 -21.101562 12.421875 -16.953125 12.421875 -11.515625 L 12.421875 -2.234375 C 12.421875 -1.578125 12.742188 -1.25 13.390625 -1.25 L 18.078125 -1.25 L 18.078125 0 L 3.140625 0 L 3.140625 -1.25 L 6.421875 -1.25 C 7.066406 -1.25 7.390625 -1.578125 7.390625 -2.234375 L 7.390625 -27.90625 C 7.390625 -28.5625 7.066406 -28.890625 6.421875 -28.890625 L 3.140625 -28.890625 L 3.140625 -30.140625 L 6.5625 -30.140625 C 9.351562 -30.140625 11.304688 -30.28125 12.421875 -30.5625 L 12.421875 -21.625 C 13.160156 -24.84375 14.25 -27.207031 15.6875 -28.71875 C 17.132812 -30.226562 18.765625 -30.984375 20.578125 -30.984375 Z M 20.578125 -30.984375 "/></g></g></g><g fill="#1c1c1c" fill-opacity="1"><g transform="translate(192.428727, 229.933931)"><g><path d="M 20.234375 -30.140625 L 29.09375 -30.140625 L 29.09375 -28.890625 L 26.515625 -28.890625 C 26.097656 -28.890625 25.773438 -28.5625 25.546875 -27.90625 L 15.140625 0 L 13.265625 0 L 2.859375 -27.90625 C 2.628906 -28.5625 2.304688 -28.890625 1.890625 -28.890625 L -0.703125 -28.890625 L -0.703125 -30.140625 L 11.171875 -30.140625 L 11.171875 -28.890625 L 7.671875 -28.890625 L 15.703125 -6.84375 L 23.796875 -28.890625 L 20.234375 -28.890625 Z M 20.234375 -30.140625 "/></g></g></g><g fill="#1c1c1c" fill-opacity="1"><g transform="translate(220.826483, 229.933931)"><g><path d="M 19.953125 -16.265625 L 20.03125 -18.703125 L 20.03125 -21.140625 C 20.03125 -26.585938 18.257812 -29.3125 14.71875 -29.3125 C 13.1875 -29.3125 11.988281 -28.785156 11.125 -27.734375 C 10.269531 -26.691406 9.84375 -25.472656 9.84375 -24.078125 C 9.84375 -22.679688 10.023438 -21.472656 10.390625 -20.453125 C 9.609375 -19.753906 8.519531 -19.40625 7.125 -19.40625 C 5.726562 -19.40625 5.03125 -20.539062 5.03125 -22.8125 C 5.03125 -25.09375 5.921875 -27.023438 7.703125 -28.609375 C 9.492188 -30.191406 12.046875 -30.984375 15.359375 -30.984375 C 21.816406 -30.984375 25.046875 -27.164062 25.046875 -19.53125 L 25.046875 -5.234375 C 25.046875 -2.722656 25.742188 -1.46875 27.140625 -1.46875 C 27.796875 -1.46875 28.367188 -1.769531 28.859375 -2.375 C 29.347656 -2.976562 29.59375 -3.675781 29.59375 -4.46875 C 29.59375 -5.257812 29.519531 -6.003906 29.375 -6.703125 L 30.703125 -6.90625 C 30.890625 -6.207031 30.984375 -5.441406 30.984375 -4.609375 C 30.984375 -2.929688 30.484375 -1.601562 29.484375 -0.625 C 28.484375 0.351562 27.164062 0.84375 25.53125 0.84375 C 23.90625 0.84375 22.582031 0.179688 21.5625 -1.140625 C 20.539062 -2.472656 20.03125 -4.46875 20.03125 -7.125 L 20.03125 -8.375 C 19.238281 -5.207031 17.976562 -2.878906 16.25 -1.390625 C 14.53125 0.0976562 12.539062 0.84375 10.28125 0.84375 C 8.03125 0.84375 6.21875 0.132812 4.84375 -1.28125 C 3.476562 -2.707031 2.796875 -4.59375 2.796875 -6.9375 C 2.796875 -9.289062 3.882812 -11.382812 6.0625 -13.21875 C 8.25 -15.0625 11.390625 -15.984375 15.484375 -15.984375 C 16.367188 -15.984375 17.859375 -15.863281 19.953125 -15.625 Z M 11.859375 -1.8125 C 13.816406 -1.8125 15.570312 -2.914062 17.125 -5.125 C 18.6875 -7.332031 19.609375 -10.4375 19.890625 -14.4375 C 19.421875 -14.488281 18.769531 -14.515625 17.9375 -14.515625 C 14.207031 -14.515625 11.539062 -13.734375 9.9375 -12.171875 C 8.332031 -10.617188 7.53125 -8.816406 7.53125 -6.765625 C 7.53125 -5.421875 7.925781 -4.257812 8.71875 -3.28125 C 9.507812 -2.300781 10.554688 -1.8125 11.859375 -1.8125 Z M 11.859375 -1.8125 "/></g></g></g><g fill="#1c1c1c" fill-opacity="1"><g transform="translate(252.852463, 229.933931)"><g><path d="M 6.34375 -2.234375 L 6.34375 -42.984375 C 6.34375 -43.640625 6.019531 -43.96875 5.375 -43.96875 L 2.09375 -43.96875 L 2.09375 -45.21875 L 5.515625 -45.21875 C 8.304688 -45.21875 10.257812 -45.359375 11.375 -45.640625 L 11.375 -2.234375 C 11.375 -1.578125 11.695312 -1.25 12.34375 -1.25 L 15.625 -1.25 L 15.625 0 L 2.09375 0 L 2.09375 -1.25 L 5.375 -1.25 C 6.019531 -1.25 6.34375 -1.578125 6.34375 -2.234375 Z M 6.34375 -2.234375 "/></g></g></g><g fill="#1c1c1c" fill-opacity="1"><g transform="translate(270.574896, 229.933931)"><g><path d="M 30.5 -20.375 L 30.5 -2.09375 C 30.5 -1.53125 30.820312 -1.25 31.46875 -1.25 L 34.75 -1.25 L 34.75 0 L 22.1875 0 L 22.1875 -1.25 L 24.5 -1.25 C 25.144531 -1.25 25.46875 -1.53125 25.46875 -2.09375 L 25.46875 -21.28125 C 25.46875 -23.65625 24.941406 -25.410156 23.890625 -26.546875 C 22.847656 -27.691406 21.46875 -28.265625 19.75 -28.265625 C 17.332031 -28.265625 15.332031 -26.832031 13.75 -23.96875 C 12.164062 -21.101562 11.375 -17 11.375 -11.65625 L 11.375 -2.234375 C 11.375 -1.578125 11.695312 -1.25 12.34375 -1.25 L 14.65625 -1.25 L 14.65625 0 L 2.09375 0 L 2.09375 -1.25 L 5.375 -1.25 C 6.019531 -1.25 6.34375 -1.53125 6.34375 -2.09375 L 6.34375 -42.984375 C 6.34375 -43.640625 6.019531 -43.96875 5.375 -43.96875 L 2.09375 -43.96875 L 2.09375 -45.21875 L 5.515625 -45.21875 C 8.304688 -45.21875 10.257812 -45.359375 11.375 -45.640625 L 11.375 -21.078125 C 12.957031 -27.679688 16.445312 -30.984375 21.84375 -30.984375 C 24.257812 -30.984375 26.304688 -30.109375 27.984375 -28.359375 C 29.660156 -26.617188 30.5 -23.957031 30.5 -20.375 Z M 30.5 -20.375 "/></g></g></g><g fill="#1c1c1c" fill-opacity="1"><g transform="translate(307.415245, 229.933931)"><g><path d="M 6.703125 -3.40625 C 4.097656 -6.25 2.796875 -10.132812 2.796875 -15.0625 C 2.796875 -20 4.097656 -23.882812 6.703125 -26.71875 C 9.304688 -29.5625 12.703125 -30.984375 16.890625 -30.984375 C 21.078125 -30.984375 24.484375 -29.5625 27.109375 -26.71875 C 29.734375 -23.882812 31.046875 -20 31.046875 -15.0625 C 31.046875 -10.132812 29.734375 -6.25 27.109375 -3.40625 C 24.484375 -0.570312 21.078125 0.84375 16.890625 0.84375 C 12.703125 0.84375 9.304688 -0.570312 6.703125 -3.40625 Z M 10.609375 -25.578125 C 8.929688 -22.992188 8.09375 -19.488281 8.09375 -15.0625 C 8.09375 -10.644531 8.929688 -7.144531 10.609375 -4.5625 C 12.285156 -1.988281 14.378906 -0.703125 16.890625 -0.703125 C 19.398438 -0.703125 21.503906 -1.988281 23.203125 -4.5625 C 24.898438 -7.144531 25.75 -10.644531 25.75 -15.0625 C 25.75 -19.488281 24.898438 -22.992188 23.203125 -25.578125 C 21.503906 -28.160156 19.398438 -29.453125 16.890625 -29.453125 C 14.378906 -29.453125 12.285156 -28.160156 10.609375 -25.578125 Z M 10.609375 -25.578125 "/></g></g></g><path stroke-linecap="butt" transform="matrix(7.49517, 0, 0, 7.5, 247.546923, 164.008847)" fill="none" stroke-linejoin="miter" d="M -0.00000635668 -0.000137911 L 19.413016 -0.000137911 " stroke="#1c1c1c" stroke-width="1" stroke-opacity="1" stroke-miterlimit="4"/><path stroke-linecap="butt" transform="matrix(6.755743, 0, 0, 6.75, -82.49999, 162.287538)" fill="none" stroke-linejoin="miter" d="M -0.00000146801 0.000225831 L 16.320602 0.000225831 " stroke="#1c1c1c" stroke-width="1" stroke-opacity="1" stroke-miterlimit="4"/><path stroke-linecap="butt" transform="matrix(6.755743, 0, 0, 6.75, -20.299251, 208.45897)" fill="none" stroke-linejoin="miter" d="M -0.000226468 -0.000287268 L 16.320377 -0.000287268 " stroke="#1c1c1c" stroke-width="1" stroke-opacity="1" stroke-miterlimit="4"/><path stroke-linecap="butt" transform="matrix(7.49517, 0, 0, 7.5, 345.439991, 211.183947)" fill="none" stroke-linejoin="miter" d="M 0.000188873 -0.000047091 L 19.413212 -0.000047091 " stroke="#1c1c1c" stroke-width="1" stroke-opacity="1" stroke-miterlimit="4"/></svg>