<svg xmlns="http://www.w3.org/2000/svg" xmlns:xlink="http://www.w3.org/1999/xlink" width="500" zoomAndPan="magnify" viewBox="0 0 375 374.999991" height="500" preserveAspectRatio="xMidYMid meet" version="1.0"><defs><g/></defs><rect x="-37.5" width="450" fill="#ffffff" y="-37.499999" height="449.999989" fill-opacity="1"/><rect x="-37.5" width="450" fill="#f4f7f5" y="-37.499999" height="449.999989" fill-opacity="1"/><rect x="-37.5" width="450" fill="#ffffff" y="-37.499999" height="449.999989" fill-opacity="1"/><rect x="-37.5" width="450" fill="#f4f7f5" y="-37.499999" height="449.999989" fill-opacity="1"/><g fill="#000000" fill-opacity="1"><g transform="translate(76.470374, 273.85343)"><g><path d="M 3.75 0.25 L 4 -3.25 L 17.03125 -5.015625 C 18.195312 -5.179688 19.195312 -6.265625 20.03125 -8.265625 L 74.140625 -175.34375 L 90.671875 -175.34375 L 148.28125 -4.765625 L 165.5625 -3.75 C 165.5625 -3.582031 165.476562 -2.332031 165.3125 0 L 115.21875 0.25 C 115.21875 -1.25 115.300781 -2.414062 115.46875 -3.25 L 128.5 -5.015625 C 129.832031 -5.179688 130.5 -6.179688 130.5 -8.015625 L 116.71875 -48.84375 L 38.578125 -48.84375 L 25.296875 -5.265625 L 54.359375 -3.75 C 54.359375 -3.582031 54.273438 -2.332031 54.109375 0 Z M 75.890625 -170.578125 L 40.078125 -53.859375 L 114.96875 -53.859375 Z M 75.890625 -170.578125 "/></g></g></g><g fill="#000000" fill-opacity="1"><g transform="translate(190.077957, 274.860286)"><g><path d="M 96.109375 0 L 95.921875 -2.703125 C 95.796875 -5.390625 94.769531 -6.734375 92.84375 -6.734375 C 91.8125 -6.734375 89.945312 -6.03125 87.25 -4.625 C 78.90625 0 70.492188 2.3125 62.015625 2.3125 C 45.835938 2.3125 32.578125 -3.269531 22.234375 -14.4375 C 11.898438 -25.613281 6.734375 -40.992188 6.734375 -60.578125 C 6.734375 -80.160156 11.835938 -95.566406 22.046875 -106.796875 C 32.253906 -118.035156 45.578125 -123.65625 62.015625 -123.65625 C 70.367188 -123.65625 78.71875 -121.535156 87.0625 -117.296875 C 89.757812 -115.890625 91.6875 -115.1875 92.84375 -115.1875 C 94.769531 -115.1875 95.796875 -116.53125 95.921875 -119.21875 L 96.109375 -122.5 L 99.765625 -122.5 L 99.765625 -89.171875 L 96.296875 -89.171875 C 95.148438 -99.066406 91.460938 -106.351562 85.234375 -111.03125 C 79.003906 -115.71875 71.265625 -118.0625 62.015625 -118.0625 C 50.335938 -118.0625 40.929688 -112.925781 33.796875 -102.65625 C 26.671875 -92.382812 23.109375 -78.320312 23.109375 -60.46875 C 23.109375 -42.625 26.703125 -28.628906 33.890625 -18.484375 C 41.085938 -8.347656 50.460938 -3.28125 62.015625 -3.28125 C 71.265625 -3.28125 79.003906 -5.617188 85.234375 -10.296875 C 91.460938 -14.984375 95.148438 -22.273438 96.296875 -32.171875 L 99.765625 -32.171875 L 99.765625 0 Z M 96.109375 0 "/></g></g></g></svg>